<?xml version="1.0" standalone="no"?>
<!DOCTYPE svg PUBLIC "-//W3C//DTD SVG 20010904//EN"
 "http://www.w3.org/TR/2001/REC-SVG-20010904/DTD/svg10.dtd">
<svg version="1.0" xmlns="http://www.w3.org/2000/svg"
 width="24.000000pt" height="24.000000pt" viewBox="0 0 24.000000 24.000000"
 preserveAspectRatio="xMidYMid meet">

<g transform="translate(0.000000,24.000000) scale(0.100000,-0.100000)"
fill="#000000" stroke="none">
<path d="M85 197 c-46 -25 -57 -52 -44 -102 22 -78 133 -79 159 -1 9 28 8 40
-2 58 -7 13 -13 29 -13 37 0 17 -74 23 -100 8z m87 -24 c10 -9 18 -23 18 -32
0 -14 -2 -14 -10 -1 -8 13 -10 12 -11 -5 -1 -17 -2 -17 -6 -2 -2 9 -8 15 -13
12 -5 -3 -7 -12 -3 -20 4 -11 -3 -15 -27 -15 -23 0 -31 4 -27 14 3 7 0 19 -6
25 -8 8 -8 11 1 11 7 0 12 -4 12 -10 0 -5 9 -10 20 -10 11 0 20 5 20 11 0 6 7
9 15 5 20 -7 19 4 -2 20 -10 7 -14 14 -9 14 5 0 18 -7 28 -17z"/>
</g>
</svg>
